<?xml version="1.0" standalone="no"?>
<!DOCTYPE svg PUBLIC "-//W3C//DTD SVG 20010904//EN"
 "http://www.w3.org/TR/2001/REC-SVG-20010904/DTD/svg10.dtd">
<svg version="1.0" xmlns="http://www.w3.org/2000/svg"
 width="700.000000pt" height="700.000000pt" viewBox="0 0 700.000000 700.000000"
 preserveAspectRatio="xMidYMid meet">
<metadata>
Created by potrace 1.14, written by Peter Selinger 2001-2017
</metadata>
<g transform="translate(0.000000,700.000000) scale(0.100000,-0.100000)"
fill="#000000" stroke="none">
<path d="M3483 6316 l-3483 -681 0 -2819 0 -2818 27 5 c16 3 1591 310 3500
683 l3473 679 0 2818 c0 2677 -1 2817 -17 2816 -10 -1 -1585 -308 -3500 -683z
m422 -528 c-3 -13 -39 -220 -79 -461 -40 -241 -77 -442 -82 -446 -5 -5 -254
-56 -553 -115 -300 -58 -545 -107 -546 -109 -1 -1 -140 -810 -309 -1797 -169
-987 -310 -1802 -312 -1810 -3 -12 -125 -39 -534 -119 -292 -57 -532 -102
-535 -100 -2 3 136 816 306 1808 170 992 308 1805 307 1806 -2 2 -247 -44
-545 -103 -298 -58 -545 -103 -548 -100 -4 3 29 213 71 466 l77 460 391 77
c215 42 949 186 1631 320 682 133 1246 243 1253 244 8 1 10 -7 7 -21z m2625
-497 c0 -11 -598 -3448 -604 -3476 -5 -18 -50 -29 -433 -103 -235 -45 -431
-83 -435 -82 -5 0 -8 90 -8 199 0 139 -3 202 -11 207 -7 4 -26 -11 -47 -37
-122 -150 -342 -347 -508 -456 -304 -198 -641 -268 -886 -184 -333 115 -508
441 -534 995 -23 507 116 1085 376 1556 249 452 619 828 995 1011 212 102 387
144 569 136 129 -6 200 -23 296 -72 63 -32 168 -129 196 -180 10 -19 23 -35
29 -35 5 0 41 82 79 181 39 100 75 183 81 185 17 7 807 162 828 163 9 1 17 -3
17 -8z"/>
<path d="M4883 4185 c-80 -22 -120 -41 -187 -89 -251 -180 -439 -542 -500
-966 -49 -341 -21 -632 71 -739 92 -108 231 -108 424 2 151 85 253 198 343
380 l48 96 99 568 99 568 -26 39 c-80 121 -234 179 -371 141z"/>
</g>
</svg>
