<?xml version="1.0" encoding="UTF-8"?><svg id="Layer_1" xmlns="http://www.w3.org/2000/svg" viewBox="0 0 2000 2000"><defs><style>.cls-1{fill:#fff;}.cls-2{fill:#d640cc;}</style></defs><polygon class="cls-2" points="2000 1608.96 0 2000 0 391.04 2000 0 2000 1608.96"/><path class="cls-1" d="m270.21,1765.29l177.9-1035.7-315.92,61.79,45.27-268.79,940.06-183.87-45.27,268.79-315.92,61.79-177.92,1035.71-308.21,60.28Z"/><path class="cls-1" d="m1150.36,1616.84c-84.77,16.58-151.47-1.4-200.14-53.97-48.69-52.55-74.07-135.51-76.18-248.9-1.7-91.46,10.83-179.92,37.59-265.34,26.77-85.4,63.66-162.77,110.7-232.12,47.04-69.32,100.75-126.7,161.15-172.16,60.37-45.43,123.96-74.69,190.73-87.75,41.09-8.04,80.78-5.12,119.07,8.73,38.27,13.85,66.1,37.83,83.5,71.92l3.87-.76,40.58-104.92,246.57-48.23-174.63,1004.04-250.43,48.98-2.23-119.83-3.84.75c-41.57,52.11-88.13,96.16-139.65,132.09-51.55,35.91-100.43,58.43-146.65,67.47Zm134.02-278.39c25.68-5.02,54.1-18.97,85.27-41.88,31.14-22.91,58.44-62.52,81.89-118.84l55.88-321.28c-12.05-23.5-28.14-39.12-48.26-46.82-20.12-7.7-39.16-9.81-57.13-6.3-28.26,5.53-55.08,19.83-80.42,42.88-25.34,23.08-48,52.72-67.95,88.96-19.95,36.25-35.29,78.03-46,125.38-10.71,47.37-15.56,98.08-14.55,152.19.94,50.28,9.62,85.12,26.1,104.51,16.48,19.41,38.2,26.47,65.17,21.2Z"/></svg>